<svg width="135" height="36" viewBox="0 0 135 36" fill="none" xmlns="http://www.w3.org/2000/svg">
<path d="M6.0525 10.7325C4.32 10.7325 2.5425 10.9125 0 10.9125V28.62C0 28.62 2.7675 28.8 4.8375 27.225V15.21H6.6825C9.9225 15.21 13.2975 16.6725 13.2975 22.905C13.2975 28.5075 10.7325 30.6675 5.6925 30.6675H0V35.055C2.52 35.055 4.32 35.1 6.0525 35.1C15.435 35.1 18.3825 29.79 18.3825 22.905C18.3825 16.02 15.435 10.7325 6.0525 10.7325ZM55.89 30.3075C55.89 30.3075 53.3475 27.0675 52.065 24.66C55.3275 23.085 56.1375 20.52 56.1375 18.18C56.1375 10.845 49.5 10.6875 46.17 10.6875C44.145 10.6875 41.895 10.8675 39.915 10.845V15.255H46.9125C49.7475 15.255 51.2325 16.4025 51.2325 18.63C51.2325 21.06 49.77 22.1175 47.3625 22.1175H44.7525V17.2575C44.7525 17.2575 41.5575 17.1225 39.915 19.35V34.695H44.7525V25.7175C47.655 25.1325 48.5325 28.0575 49.7925 30.1275C51.525 33.0075 52.5825 35.0775 56.0925 35.0775C56.7225 35.0775 57.4425 35.01 58.2525 34.8525L58.32 31.0725C57.4425 31.2525 56.745 31.365 55.89 30.3075ZM22.2075 7.1325C22.2075 2.4075 23.535 4.14 29.16 4.14C34.785 4.14 36.1125 2.385 36.1125 7.1325V7.6275H39.8925V6.3675C39.8925 1.9125 37.6875 0 29.16 0C20.6325 0 18.4275 1.9125 18.4275 6.3675V7.6275H22.2075V7.1325ZM19.9575 35.1225H36.8325V30.6H25.47V24.435H35.3025V20.3175H25.47V15.1875H36.8325V10.6875H19.9575V35.1225ZM64.665 12.42V35.1225H62.685V12.42H55.215V10.6875H72.09V12.42H64.665ZM73.935 22.725C73.935 28.125 74.9925 33.5475 81.3375 33.5475C87.6825 33.5475 88.695 28.1475 88.695 22.725C88.695 17.3025 87.66 12.2625 81.3375 12.2625C74.9925 12.2625 73.935 17.325 73.935 22.725ZM72.1125 22.725C72.1125 16.2 73.845 10.6875 81.3375 10.6875C88.83 10.6875 90.5175 16.2 90.5175 22.725C90.5175 29.385 88.83 35.1225 81.3375 35.1225C73.8225 35.1225 72.1125 29.385 72.1125 22.725ZM110.183 26.2575V10.6875H111.982V26.2575C111.982 32.3775 109.26 35.1 103.567 35.1C97.875 35.1 95.1075 32.3775 95.1075 26.2575V10.6875H96.9525V26.2575C96.9525 29.025 97.2 33.525 103.702 33.525C109.8 33.525 110.183 29.025 110.183 26.2575ZM119.97 23.085H127.08C130.275 23.085 132.412 21.105 132.412 17.73C132.412 14.6475 130.545 12.42 127.327 12.42H119.992L119.97 23.085ZM132.863 35.1225L126.585 24.795H119.97V35.1H118.125V10.6875H127.485C131.917 10.6875 134.235 13.8825 134.235 17.73C134.235 21.33 132.188 24.12 128.475 24.525L135 35.1225H132.863Z" fill="#E40028"/>
</svg>
