<svg width="120" height="56" viewBox="0 0 120 56" fill="none" xmlns="http://www.w3.org/2000/svg">
<path d="M119.372 55.1997C118.966 54.9757 118.598 53.4654 118.268 50.6695L117.355 42.6974L117.595 41.5931C117.798 42.0095 118.145 43.8079 118.636 46.9878C119.126 50.1683 119.372 52.3087 119.372 53.4075V55.1997Z" fill="#252422"/>
<path d="M54.3606 27.1794C54.3606 42.1901 42.1917 54.3594 27.18 54.3594C12.1689 54.3594 0 42.1901 0 27.1794C0 12.1686 12.1689 0 27.18 0C42.1917 0 54.3606 12.1686 54.3606 27.1794Z" fill="#EA7225"/>
<path d="M42.024 15.2721C48.836 15.2714 54.3589 20.7945 54.3589 27.6071C54.3588 34.4195 48.8366 39.942 42.024 39.942C35.2114 39.9418 29.6891 34.4194 29.689 27.6071C29.689 20.7946 35.2107 15.2723 42.024 15.2721ZM42.0786 21.2526C38.4803 21.2526 35.564 24.1689 35.564 27.7672C35.564 31.3648 38.4803 34.2819 42.0786 34.2819C45.677 34.2818 48.5933 31.3648 48.5933 27.7672C48.5933 24.169 45.6776 21.2526 42.0786 21.2526Z" fill="#FEFEFE"/>
<path d="M64.1052 39.1941L63.8915 29.8497L64.2121 24.4833L64.2658 23.2818C64.2658 23.2818 63.7867 21.1028 68.4508 20.612C69.2118 20.5321 72.1153 20.4121 72.1153 20.4121L72.5358 16.5877C72.5358 16.5877 69.6006 15.6454 66.4883 15.9667C65.3267 16.0866 59.1364 16.9558 58.2182 27.06C58.0983 28.3814 57.877 37.5915 58.7787 39.0342C58.9786 39.3541 60.5006 39.9951 64.1052 39.1941Z" fill="#FEFEFE"/>
<path fill-rule="evenodd" clip-rule="evenodd" d="M105.25 16.3782C105.894 19.4539 107.656 21.413 109.099 23.6912C111.956 22.3146 112.634 18.7591 114.493 16.3782H119.114C118.713 20.2473 115.4 24.4577 112.565 27.1619C115.344 30.9263 118.768 34.0435 119.88 39.4857H114.107C112.615 36.352 111.34 33.0053 108.711 31.0091C106.318 32.9792 104.929 35.9563 103.707 39.0935C102.459 39.5436 99.5188 39.8186 98.3193 39.0935C99.9317 34.679 102.28 30.9973 105.25 27.9285C103.116 24.4164 100.549 21.3337 99.088 17.1474C99.8338 15.582 103.287 16.7263 105.25 16.3782Z" fill="#EA7225"/>
<path fill-rule="evenodd" clip-rule="evenodd" d="M79.3544 25.891H90.3204C91.1214 18.3305 78.7953 19.1563 79.3544 25.891ZM95.802 29.8078H79.3544C79.3103 37.0484 88.3013 36.8265 93.055 34.1119C93.2983 35.3099 93.8912 36.1502 94.2359 37.2414C85.8618 43.5708 73.8748 38.7386 73.0938 29.4135C71.6944 12.7022 98.4498 11.4069 95.802 29.8078Z" fill="#EA7225"/>
<path fill-rule="evenodd" clip-rule="evenodd" d="M72.5604 16.5464C72.8602 18.2635 72.0461 18.8584 72.1785 20.3977C69.9857 20.4935 65.9103 20.388 64.473 22.3209C63.6141 27.2454 64.309 33.7182 64.0849 39.27C62.8324 39.7201 59.8931 39.9952 58.6916 39.27C56.6284 26.8001 58.036 12.4367 72.5604 16.5464Z" fill="#EA7225"/>
<path d="M81.7385 44.8902C81.5145 45.168 80.954 45.4024 80.0572 45.5947C78.9157 45.8401 78.1843 46.0324 77.8644 46.171C77.9175 46.6942 77.9471 47.4759 77.9527 48.5161C77.9575 49.5562 77.9871 50.3331 78.0409 50.8453C78.0623 51.112 78.1636 51.6139 78.3449 52.3501C78.4945 52.9801 78.5634 53.3482 78.5531 53.4551V55.7285L77.9127 55.8725C77.8169 55.6905 77.63 55.4134 77.3522 55.0398C77.0744 54.6662 76.8883 54.3781 76.7918 54.1754C76.9731 54.3457 77.304 54.5966 77.7845 54.9275C77.8486 54.8206 77.8803 54.5649 77.8803 54.1589C77.8803 54.1699 77.7789 53.14 77.5763 51.0693C77.3839 49.0847 77.2399 47.4573 77.1441 46.1868C76.8883 46.0055 76.4451 45.9145 75.8157 45.9145H74.9671C74.497 45.9145 74.1399 45.8718 73.8945 45.7863V45.1618C75.1002 45.1618 76.1142 45.1301 76.9359 45.066C76.989 44.671 77.0903 44.0947 77.2399 43.3372C77.5811 43.7638 77.7417 44.3456 77.7203 45.0818C77.9768 45.1563 78.2594 45.1935 78.5682 45.1935C78.8777 45.1935 79.3368 45.1377 79.9455 45.0253C80.5535 44.913 81.0126 44.8571 81.3221 44.8571C81.4717 44.8578 81.611 44.8688 81.7385 44.8902Z" fill="#252422"/>
<path d="M89.4551 45.8664C88.3349 47.2326 87.5877 48.1929 87.214 48.7478C86.4027 49.9534 85.9174 51.0529 85.7575 52.0455C85.672 52.5901 85.6293 53.5978 85.6293 55.0709V55.8395C85.5327 55.8926 85.4266 55.9195 85.3087 55.9195C84.9889 55.9195 84.7641 55.8285 84.6359 55.6472C84.5932 55.2633 84.4491 54.2865 84.2037 52.7176C84.0121 51.4796 83.9156 50.7592 83.9156 50.5566V49.628C84.2251 49.799 84.4326 49.9858 84.5394 50.1884C84.6456 50.4662 84.7476 50.7385 84.8434 51.0046C85.5803 49.5426 86.1345 48.5341 86.5089 47.9792C87.3409 46.7411 88.2481 45.8981 89.2304 45.4493C89.2517 45.5362 89.3269 45.6741 89.4551 45.8664Z" fill="#252422"/>
<path d="M105.555 45.9945C104.562 47.8095 103.794 49.4735 103.25 50.9893C102.919 51.9179 102.433 53.535 101.793 55.8401C101.579 55.8401 101.419 55.8932 101.313 56C100.556 54.1003 99.8774 51.6028 99.2797 48.5078C99.7388 48.9875 100.101 49.874 100.368 51.1651C100.698 52.7237 100.971 53.7108 101.184 54.1272C101.451 53.5936 101.798 52.6865 102.225 51.4057C102.631 50.1677 103.004 49.2392 103.345 48.6208C103.911 47.5848 104.648 46.71 105.555 45.9945Z" fill="#252422"/>
<path d="M115.866 51.773C115.866 52.6802 115.301 53.4115 114.17 53.9665C113.347 54.3718 112.617 54.5744 111.976 54.5744C110.76 54.5744 109.623 54.0726 108.566 53.0696C107.509 52.0667 106.981 50.9617 106.981 49.7561C106.981 48.8592 107.296 48.0376 107.926 47.2903C108.641 46.4473 109.537 46.0261 110.615 46.0261C111.82 46.0261 112.424 46.6934 112.424 48.0272C112.424 48.4967 112.296 49.0357 112.04 49.6444C111.88 50.007 111.634 50.5571 111.303 51.2933C111.218 51.2933 110.984 51.3043 110.599 51.3256C110.278 51.336 110.044 51.3098 109.894 51.2457C110.012 51.0003 110.239 50.6935 110.575 50.3254C110.911 49.9573 111.132 49.672 111.239 49.4686C111.432 49.106 111.527 48.6256 111.527 48.0279C111.527 47.7612 111.425 47.462 111.223 47.1318C110.999 46.7582 110.764 46.5714 110.518 46.5714C109.782 46.5714 109.158 46.8864 108.645 47.5158C108.133 48.1458 107.877 48.8337 107.877 49.581C107.877 50.3813 108.266 51.2829 109.045 52.2866C109.867 53.333 110.667 53.8555 111.447 53.8555H112.135C112.903 53.8555 113.613 53.4557 114.264 52.6547C114.616 52.1963 115.15 51.5021 115.865 50.5736V51.773H115.866Z" fill="#252422"/>
<path d="M94.207 46.3618C94.3994 46.3618 94.5971 46.3671 94.7998 46.3774C95.4402 46.9434 96.075 48.1226 96.7051 49.9155C97.2179 51.3788 97.6504 53.0004 98.002 54.7827C97.6821 54.7827 97.3507 54.4523 97.0088 53.7905C96.742 53.2887 96.4184 52.5155 96.04 51.4692C95.6609 50.4235 95.3545 49.6597 95.1201 49.1792C94.7892 49.8196 94.4641 50.4607 94.1436 51.1011C93.7382 51.6986 93.2146 51.9966 92.5742 51.9966C91.9015 51.9965 91.3037 51.6289 90.7812 50.8921C90.3332 50.2518 90.1094 49.654 90.1094 49.0991C90.1094 48.1603 90.5843 47.4451 91.5342 46.9536C92.2916 46.5594 93.1822 46.3619 94.207 46.3618ZM94.3701 47.3335C94.3482 47.3327 92.8602 47.2762 92.5674 47.3774C92.5594 47.3813 92.4649 47.4155 92.457 47.4185C92.131 47.5846 91.6953 47.6765 91.5898 48.6753C91.483 49.6896 91.5425 50.3053 91.7236 50.5708C91.8973 50.8245 92.1776 51.3447 92.6318 51.3716C93.0861 51.3985 93.6515 50.6415 93.8066 50.3306C93.9937 49.9563 94.6367 49.388 94.3701 47.3335Z" fill="#252422"/>
</svg>
