<svg width="109" height="48" viewBox="0 0 109 48" fill="none" xmlns="http://www.w3.org/2000/svg">
<g clip-path="url(#clip0_1_265)">
<path d="M108.695 41.4955C108.794 41.4159 108.874 41.314 108.927 41.198C108.983 41.0381 109.008 40.8686 109 40.6992V24.3703C109.007 24.1979 108.983 24.0255 108.927 23.8623C108.876 23.7489 108.796 23.651 108.695 23.5786C108.449 23.3894 107.879 23.2948 106.983 23.2948C106.088 23.2948 105.509 23.3894 105.245 23.5786C105.144 23.651 105.064 23.7489 105.013 23.8623C104.961 24.0264 104.941 24.1987 104.953 24.3703V40.7085C104.939 40.8533 104.957 40.9994 105.006 41.1364C105.054 41.2733 105.133 41.3976 105.236 41.5002C105.481 41.6894 106.061 41.784 106.974 41.784C107.888 41.784 108.461 41.6877 108.695 41.4955ZM96.5784 41.587C97.4236 41.311 98.1998 40.8552 98.8542 40.2507C99.4485 39.6975 99.904 39.0106 100.183 38.2462C100.468 37.4304 100.61 36.5709 100.602 35.7062V24.3702C100.62 24.2239 100.603 24.0755 100.554 23.9366C100.505 23.7976 100.425 23.672 100.32 23.5694C100.053 23.3802 99.4823 23.2856 98.6084 23.2856C97.7345 23.2856 97.1549 23.3802 96.8697 23.5694C96.7644 23.638 96.6819 23.7369 96.633 23.8531C96.5723 24.0187 96.5415 24.1938 96.542 24.3702V35.6558C96.539 36.1231 96.4607 36.5868 96.3099 37.0288C96.127 37.5296 95.7651 37.944 95.2949 38.1912C94.6564 38.5239 93.9422 38.6817 93.2239 38.6488C92.7089 38.6598 92.1955 38.5872 91.7036 38.4337C91.319 38.3123 90.9672 38.1041 90.6749 37.8251C90.4047 37.56 90.2018 37.2335 90.0832 36.8732C89.9551 36.4788 89.892 36.0661 89.8966 35.6512V24.37C89.9141 24.2237 89.8977 24.0753 89.8488 23.9364C89.7998 23.7974 89.7196 23.6718 89.6144 23.5691C89.3474 23.38 88.7769 23.2854 87.903 23.2854C87.029 23.2854 86.4495 23.38 86.1642 23.5691C86.0589 23.6378 85.9765 23.7367 85.9275 23.8529C85.8792 24.0207 85.8607 24.1958 85.8729 24.37V35.7014C85.865 36.566 86.0067 37.4255 86.2917 38.2413C86.5632 39.0105 87.0125 39.7038 87.6026 40.2641C88.2587 40.8621 89.0348 41.3116 89.8784 41.5822C92.0632 42.2229 94.3846 42.2229 96.5694 41.5822L96.5784 41.587ZM76.724 41.4955C76.8219 41.4166 76.8986 41.3144 76.947 41.198C76.9994 41.0372 77.0225 40.8682 77.0153 40.6992V26.7636H81.0663C81.312 26.7704 81.5573 26.7411 81.7946 26.6766C81.8881 26.6454 81.9745 26.5957 82.0488 26.5305C82.123 26.4653 82.1836 26.3858 82.227 26.2968C82.3724 25.9795 82.4676 25.6414 82.5092 25.2945C82.5676 24.9558 82.601 24.6131 82.6093 24.2694C82.6149 24.1044 82.5965 23.9394 82.5547 23.7797C82.5194 23.6625 82.4435 23.5618 82.3407 23.496C82.2534 23.4457 82.1578 23.4116 82.0585 23.3953C81.8822 23.3698 81.7041 23.3591 81.526 23.3633H68.9133C68.6677 23.3565 68.4223 23.3858 68.1851 23.4502C68.0875 23.479 67.9968 23.5275 67.9185 23.5929C67.8402 23.6582 67.776 23.7389 67.7299 23.8301C67.5894 24.1058 67.4942 24.4025 67.4477 24.7087C67.3806 25.0817 67.3471 25.4601 67.3476 25.8391C67.3483 26.0114 67.3744 26.1826 67.425 26.3471C67.461 26.4667 67.5407 26.568 67.648 26.6309C67.903 26.7416 68.1814 26.7872 68.4582 26.7636H72.9689V40.6899C72.9508 40.8383 72.9691 40.9888 73.0223 41.1285C73.0755 41.2681 73.1618 41.3925 73.2738 41.4908C73.5196 41.6799 74.0992 41.7745 75.0126 41.7745C75.9259 41.7745 76.4949 41.683 76.7195 41.4999L76.724 41.4955Z" fill="#D40E14"/>
<path d="M59.6664 5.29044C59.6664 6.69355 59.1121 8.0392 58.1253 9.03135C57.1386 10.0235 55.8002 10.5809 54.4047 10.5809C53.0092 10.5809 51.6709 10.0235 50.6841 9.03135C49.6974 8.0392 49.143 6.69355 49.143 5.29044C49.143 3.88733 49.6974 2.54168 50.6841 1.54953C51.6709 0.557384 53.0092 0 54.4047 0C55.8002 0 57.1386 0.557384 58.1253 1.54953C59.1121 2.54168 59.6664 3.88733 59.6664 5.29044ZM2.81748 13.3679H17.0142C18.4161 13.3679 19.4539 13.8255 19.8634 15.798C20.3186 18.0085 20.1456 19.5462 17.6604 19.7202L13.1999 20.0405C16.4862 40.8636 35.6487 47.6558 46.0852 25.2164C47.8148 21.505 48.361 20.8277 50.2681 21.2989C52.8307 21.9397 53.1811 23.276 51.9522 27.0058C42.9444 54.665 12.6223 57.4405 6.67358 20.5118L3.06404 20.7726C0.119134 20.9832 0.000869426 18.4844 0.000869426 17.1113C-0.00823398 14.3517 1.00678 13.3678 2.81825 13.3678L2.81748 13.3679Z" fill="#D40E14"/>
</g>
<defs>
<clipPath id="clip0_1_265">
<rect width="109" height="48" fill="white"/>
</clipPath>
</defs>
</svg>
