<svg width="1512" height="380" viewBox="0 0 1512 380" fill="none" xmlns="http://www.w3.org/2000/svg">
<path d="M-237.014 -183.946H1202.99V735.215H-237.014V-183.946Z" fill="#D9D9D9"/>
<path d="M1253.99 -212.68C643.368 -249.035 -283.061 -387.446 -485.514 -258C-611.175 -162.981 -767.537 623.722 -600.014 974.879C-474.645 1237.67 -83.5717 1282.65 38.9863 1277.83C158.442 1282.65 846.337 1296.78 1173.99 1162.93C1543.99 985.286 1916.28 487.072 1922.49 361.068V7.84525C1896.89 -235.899 1347.07 -202.352 1253.99 -212.68Z" fill="#FFE169"/>
<path d="M1212.59 241.499C732.026 -218.52 191.78 -268.209 -16.585 -236.374C-198.904 -208.518 25.2005 64.4158 -33.0137 241.499C-152.713 605.615 132.722 522.218 333.645 818.168C890.986 1639.11 829.491 782.785 1069.57 587.363C1347.81 360.881 1223.68 257.417 1212.59 241.499Z" fill="#FFD839"/>
<path d="M980.091 292.001C972.996 41.8377 564.773 -16.8661 361.548 -14.9477C235.18 -14.9477 186.274 42.2798 137.5 153.549C13.348 468.172 494.568 654.585 716.268 683.361C937.968 712.138 988.959 604.706 980.091 292.001Z" fill="#FFE169"/>
</svg>
